<?xml version="1.0" encoding="UTF-8"?>
<svg version="1.1" xmlns="http://www.w3.org/2000/svg" width="314" height="136">
<path d="M0 0 C103.62 0 207.24 0 314 0 C314 44.88 314 89.76 314 136 C210.38 136 106.76 136 0 136 C0 91.12 0 46.24 0 0 Z " fill="#FDFDFD" transform="translate(0,0)"/>
<path d="M0 0 C2 2 2 2 2 5 C3.98 5 5.96 5 8 5 C8.12375 4.38125 8.2475 3.7625 8.375 3.125 C9 1 9 1 11 -1 C14.29714793 -0.67028521 15.6226839 -0.3773161 18 2 C18 2.99 18 3.98 18 5 C19.98 5 21.96 5 24 5 C24.185625 4.071875 24.185625 4.071875 24.375 3.125 C25 1 25 1 27 -1 C32.45454545 -0.54545455 32.45454545 -0.54545455 35 2 C35 2.99 35 3.98 35 5 C36.98 5 38.96 5 41 5 C41.144375 4.360625 41.28875 3.72125 41.4375 3.0625 C42 1 42 1 43 0 C45.9375 -0.1875 45.9375 -0.1875 49 0 C51 2 51 2 51 5 C54.96 5 58.92 5 63 5 C62.99045288 7.17940186 62.99045288 7.17940186 62.98071289 9.40283203 C62.96626063 14.80413017 62.99763965 20.20436639 63.04272461 25.60546875 C63.05584764 27.94104395 63.05661399 30.27672312 63.04467773 32.61230469 C63.02965585 35.97434633 63.05936443 39.33350678 63.09765625 42.6953125 C63.08340103 43.73615997 63.06914581 44.77700745 63.05445862 45.84939575 C63.08265242 51.30448175 63.08265242 51.30448175 65.58322144 55.96331787 C67.44396363 57.59491556 67.44396363 57.59491556 69.40281677 58.88961792 C71 60 71 60 72 62 C72.6198407 66.2918084 72.95106138 70.32059414 70.765625 74.1796875 C67.81577873 77.69905855 65.70046673 79.68623148 60.94921875 80.23828125 C55.43348212 80.41928124 52.36459729 79.70990769 48 76 C47.67 75.34 47.34 74.68 47 74 C46.17536758 73.98969254 45.35073517 73.97938507 44.50111389 73.96876526 C36.74594316 73.8709612 28.99085547 73.76847166 21.23581791 73.66066074 C17.24846784 73.60539527 13.26111048 73.55196963 9.27368164 73.50268555 C5.42868399 73.45509524 1.58377818 73.40275464 -2.26111031 73.34705925 C-3.73116342 73.32661143 -5.20124174 73.30790244 -6.67133904 73.29092598 C-8.72361276 73.26693536 -10.77571147 73.2368741 -12.82788086 73.20532227 C-13.99814316 73.18977798 -15.16840546 73.1742337 -16.37413025 73.15821838 C-19 73 -19 73 -20 72 C-20.09417773 69.91380978 -20.11742878 67.82439523 -20.11352539 65.73608398 C-20.11367142 65.08244873 -20.11381744 64.42881348 -20.1139679 63.75537109 C-20.11326883 61.58557872 -20.10547678 59.41587121 -20.09765625 57.24609375 C-20.09579205 55.74536689 -20.09436816 54.24463943 -20.09336853 52.74391174 C-20.08954352 48.78681774 -20.0797134 44.82976022 -20.06866455 40.87268066 C-20.05845006 36.83765151 -20.05387083 32.80261647 -20.04882812 28.76757812 C-20.03809111 20.84503531 -20.0210149 12.92252219 -20 5 C-16.04 5 -12.08 5 -8 5 C-7.67 3.35 -7.34 1.7 -7 0 C-4.29393021 -1.35303489 -2.8671629 -0.7884698 0 0 Z " fill="#EFF5F0" transform="translate(29,32)"/>
<path d="M0 0 C2 2 2 2 2 5 C3.98 5 5.96 5 8 5 C8.12375 4.38125 8.2475 3.7625 8.375 3.125 C9 1 9 1 11 -1 C14.29714793 -0.67028521 15.6226839 -0.3773161 18 2 C18 2.99 18 3.98 18 5 C19.98 5 21.96 5 24 5 C24.185625 4.071875 24.185625 4.071875 24.375 3.125 C25 1 25 1 27 -1 C32.45454545 -0.54545455 32.45454545 -0.54545455 35 2 C35 2.99 35 3.98 35 5 C36.98 5 38.96 5 41 5 C41.144375 4.360625 41.28875 3.72125 41.4375 3.0625 C42 1 42 1 43 0 C45.9375 -0.1875 45.9375 -0.1875 49 0 C51 2 51 2 51 5 C51.99 5.495 51.99 5.495 53 6 C52.67 6.33 52.34 6.66 52 7 C54.64 7.33 57.28 7.66 60 8 C60 11.3 60 14.6 60 18 C34.59 18 9.18 18 -17 18 C-17 14.7 -17 11.4 -17 8 C-14.36 8 -11.72 8 -9 8 C-8.34 9.65 -7.68 11.3 -7 13 C-6.34 12.67 -5.68 12.34 -5 12 C-5 9.36 -5 6.72 -5 4 C-5.99 3.67 -6.98 3.34 -8 3 C-7.67 2.01 -7.34 1.02 -7 0 C-4.29393021 -1.35303489 -2.8671629 -0.7884698 0 0 Z " fill="#415C45" transform="translate(29,32)"/>
<path d="M0 0 C1.32 0.33 2.64 0.66 4 1 C4 3.64 4 6.28 4 9 C3.01 9.33 2.02 9.66 1 10 C0.835 9.360625 0.67 8.72125 0.5 8.0625 C-0.781786 5.83880759 -0.781786 5.83880759 -2.9140625 5.51171875 C-4.93575155 5.2724022 -6.96841939 5.13106972 -9 5 C-9 8.3 -9 11.6 -9 15 C16.41 15 41.82 15 68 15 C68 11.7 68 8.4 68 5 C65.03 5 62.06 5 59 5 C59.66 4.01 60.32 3.02 61 2 C63.3828125 1.70703125 63.3828125 1.70703125 66.125 1.8125 C67.03507812 1.83957031 67.94515625 1.86664063 68.8828125 1.89453125 C69.58148438 1.92933594 70.28015625 1.96414062 71 2 C71.0154612 2.91082085 71.0154612 2.91082085 71.03123474 3.84004211 C71.13927232 10.15022613 71.25387267 16.46026655 71.37231445 22.77026367 C71.41567208 25.12635295 71.45734654 27.48247383 71.49731445 29.83862305 C71.55499676 33.22193938 71.61869731 36.60509657 71.68359375 39.98828125 C71.70030624 41.04461258 71.71701874 42.10094391 71.73423767 43.18928528 C71.7641555 44.66047066 71.7641555 44.66047066 71.79467773 46.16137695 C71.81799416 47.45710381 71.81799416 47.45710381 71.84178162 48.77900696 C71.92009739 51.17365425 71.92009739 51.17365425 73 54 C70.36 54 67.72 54 65 54 C65.33 53.01 65.66 52.02 66 51 C66.66 51 67.32 51 68 51 C68 40.11 68 29.22 68 18 C42.59 18 17.18 18 -9 18 C-9 33.84 -9 49.68 -9 66 C11.79 66 32.58 66 54 66 C53.01 66.495 53.01 66.495 52 67 C52 67.66 52 68.32 52 69 C30.88 69 9.76 69 -12 69 C-12 46.89 -12 24.78 -12 2 C-8.04 2 -4.08 2 0 2 C0 1.34 0 0.68 0 0 Z " fill="#3D5741" transform="translate(21,35)"/>
<path d="M0 0 C-0.33 0.99 -0.66 1.98 -1 3 C1.64 3 4.28 3 7 3 C7.33 2.34 7.66 1.68 8 1 C11.95610225 4.55578238 14.44972187 7.54494734 14.75 13 C14.4672631 17.74853001 12.83653411 20.33203211 9.60546875 23.72265625 C6.2029967 26.42973255 2.44417864 26.32682854 -1.70703125 26.29296875 C-5.20475473 25.84607052 -7.35865969 24.24513927 -10 22 C-10.495 21.01 -10.495 21.01 -11 20 C-43.67 19.505 -43.67 19.505 -77 19 C-77 18.67 -77 18.34 -77 18 C-56.21 18 -35.42 18 -14 18 C-13.34 14.37 -12.68 10.74 -12 7 C-8.82932976 1.98829543 -6.01330593 -0.32504356 0 0 Z " fill="#6C806F" transform="translate(87,86)"/>
<path d="M0 0 C3.23300086 1.47593517 5.72160787 3.26592945 8 6 C9.69938759 11.09816276 9.63928388 15.38656926 7.6875 20.3125 C5.38374755 23.98143909 4.13771537 25.62076154 0 27 C-3.76854983 27.50247331 -7.41269044 27.83718859 -10.8515625 26.0234375 C-14.48519001 23.1057957 -16.60959557 20.24107156 -17.40625 15.66796875 C-17.59134786 10.77058778 -17.36596151 7.76341554 -14.125 3.9375 C-9.82927635 -0.47236123 -5.97205982 -0.58996085 0 0 Z " fill="#48624D" transform="translate(246,59)"/>
<path d="M0 0 C2.64 0 5.28 0 8 0 C8.66 1.65 9.32 3.3 10 5 C12.87364791 5.41746608 12.87364791 5.41746608 16 5 C16.495 4.175 16.99 3.35 17.5 2.5 C17.995 1.675 18.49 0.85 19 0 C22.1875 -0.3125 22.1875 -0.3125 25 0 C25.33 1.32 25.66 2.64 26 4 C29.97754128 4.73334429 29.97754128 4.73334429 34 5 C34.33 3.35 34.66 1.7 35 0 C37.8125 -0.3125 37.8125 -0.3125 41 0 C42.03013277 1.64821244 43.03114628 3.31503702 44 5 C46.5 5.83333333 46.5 5.83333333 49 5 C49.495 4.175 49.99 3.35 50.5 2.5 C50.995 1.675 51.49 0.85 52 0 C54.5 -0.625 54.5 -0.625 57 0 C58.8125 2.5 58.8125 2.5 60 5 C63.465 4.505 63.465 4.505 67 4 C67.33 3.01 67.66 2.02 68 1 C70.64 1 73.28 1 76 1 C76 3.64 76 6.28 76 9 C50.92 9 25.84 9 0 9 C0 6.03 0 3.06 0 0 Z " fill="#F5F9F5" transform="translate(12,40)"/>
<path d="M0 0 C7 0 7 0 8.71264648 1.46875 C9.28607788 2.47421875 9.28607788 2.47421875 9.87109375 3.5 C10.29970703 4.221875 10.72832031 4.94375 11.16992188 5.6875 C11.79737305 6.8321875 11.79737305 6.8321875 12.4375 8 C12.88287109 8.763125 13.32824219 9.52625 13.78710938 10.3125 C14.88131945 12.19501195 15.94381586 14.09589338 17 16 C17.33 10.72 17.66 5.44 18 0 C19.65 0 21.3 0 23 0 C23 8.91 23 17.82 23 27 C21.35 27 19.7 27 18 27 C16.12109375 25.0234375 16.12109375 25.0234375 14.4375 22.375 C13.87933594 21.51648438 13.32117188 20.65796875 12.74609375 19.7734375 C12.16988281 18.85820313 11.59367188 17.94296875 11 17 C9.68 15.02 8.36 13.04 7 11 C6.67 16.28 6.34 21.56 6 27 C4.02 27 2.04 27 0 27 C0 18.09 0 9.18 0 0 Z " fill="#506954" transform="translate(178,59)"/>
<path d="M0 0 C2.206875 -0.061875 4.41375 -0.12375 6.6875 -0.1875 C8.54955078 -0.23970703 8.54955078 -0.23970703 10.44921875 -0.29296875 C14.22882258 0.01887975 16.08234284 0.60883737 19 3 C19.5625 6.4375 19.5625 6.4375 19 10 C17 12.4375 17 12.4375 15 14 C15.70576172 14.58201172 15.70576172 14.58201172 16.42578125 15.17578125 C18.40992887 17.47502924 18.68533163 19.21311811 19.1875 22.1875 C19.34605469 23.08855469 19.50460937 23.98960938 19.66796875 24.91796875 C19.77753906 25.60503906 19.88710938 26.29210937 20 27 C18.35 27 16.7 27 15 27 C14.69707031 26.21753906 14.39414062 25.43507813 14.08203125 24.62890625 C13.66308594 23.61699219 13.24414062 22.60507813 12.8125 21.5625 C12.40644531 20.55316406 12.00039063 19.54382813 11.58203125 18.50390625 C11.05996094 17.67761719 10.53789062 16.85132812 10 16 C8.35 15.67 6.7 15.34 5 15 C5 18.96 5 22.92 5 27 C3.35 27 1.7 27 0 27 C0 18.09 0 9.18 0 0 Z " fill="#3E5944" transform="translate(261,59)"/>
<path d="M0 0 C2.64 0 5.28 0 8 0 C11.45076489 8.90051656 14.75424696 17.70179445 17 27 C15.02 27 13.04 27 11 27 C10.34 25.02 9.68 23.04 9 21 C5.7 21 2.4 21 -1 21 C-1.66 22.98 -2.32 24.96 -3 27 C-4.98 27 -6.96 27 -9 27 C-6.03 18.09 -3.06 9.18 0 0 Z " fill="#425D47" transform="translate(292,59)"/>
<path d="M0 0 C3.4185354 0.79889686 5.05365451 2.80995577 7.15625 5.50390625 C7.48625 5.83390625 7.81625 6.16390625 8.15625 6.50390625 C8.57820626 10.21712136 8.44456289 12.03406302 6.46875 15.25390625 C3.99059991 17.66507931 2.5077388 18.70593273 -0.84375 19.50390625 C-4.75579555 19.4224053 -6.52436691 18.7330289 -9.71875 16.44140625 C-12.10821048 13.13832853 -12.61085023 11.42772481 -12.31640625 7.44140625 C-10.74562672 1.00250834 -5.87322066 -0.30344973 0 0 Z " fill="#F4F8F4" transform="translate(89.84375,89.49609375)"/>
<path d="M0 0 C1.98 0 3.96 0 6 0 C6.42152344 1.21558594 6.84304687 2.43117187 7.27734375 3.68359375 C7.83057808 5.26828192 8.38397172 6.85291448 8.9375 8.4375 C9.21529297 9.23994141 9.49308594 10.04238281 9.77929688 10.86914062 C10.18051758 12.01479492 10.18051758 12.01479492 10.58984375 13.18359375 C10.83597412 13.89056396 11.08210449 14.59753418 11.33569336 15.32592773 C11.87467975 17.00682632 11.87467975 17.00682632 13 18 C14.98 12.06 16.96 6.12 19 0 C20.98 0 22.96 0 25 0 C22.43696551 9.15048279 19.20468777 18.06006196 16 27 C13.69 27 11.38 27 9 27 C7.49485354 22.87685942 5.99675628 18.75119298 4.5 14.625 C4.07074219 13.449375 3.64148438 12.27375 3.19921875 11.0625 C2.79316406 9.94101563 2.38710937 8.81953125 1.96875 7.6640625 C1.59169922 6.62717285 1.21464844 5.5902832 0.82617188 4.52197266 C0 2 0 2 0 0 Z " fill="#4A634F" transform="translate(126,59)"/>
<path d="M0 0 C5.94 0 11.88 0 18 0 C18 1.32 18 2.64 18 4 C13.71 4 9.42 4 5 4 C5 6.31 5 8.62 5 11 C8.63 11 12.26 11 16 11 C16 12.32 16 13.64 16 15 C12.37 15 8.74 15 5 15 C5 17.64 5 20.28 5 23 C9.29 23 13.58 23 18 23 C18 24.32 18 25.64 18 27 C12.06 27 6.12 27 0 27 C0 18.09 0 9.18 0 0 Z " fill="#3B5840" transform="translate(105,59)"/>
<path d="M0 0 C5.94 0 11.88 0 18 0 C18 1.32 18 2.64 18 4 C13.71 4 9.42 4 5 4 C5 6.31 5 8.62 5 11 C8.63 11 12.26 11 16 11 C16 12.32 16 13.64 16 15 C12.37 15 8.74 15 5 15 C5 17.64 5 20.28 5 23 C9.29 23 13.58 23 18 23 C18 24.32 18 25.64 18 27 C12.06 27 6.12 27 0 27 C0 18.09 0 9.18 0 0 Z " fill="#3D5842" transform="translate(155,59)"/>
<path d="M0 0 C3.0625 0.1875 3.0625 0.1875 5.0625 2.1875 C5.0625 3.1775 5.0625 4.1675 5.0625 5.1875 C6.0525 5.6825 6.0525 5.6825 7.0625 6.1875 C6.7325 6.5175 6.4025 6.8475 6.0625 7.1875 C8.7025 7.5175 11.3425 7.8475 14.0625 8.1875 C14.0625 11.4875 14.0625 14.7875 14.0625 18.1875 C-11.3475 18.1875 -36.7575 18.1875 -62.9375 18.1875 C-62.9375 17.8575 -62.9375 17.5275 -62.9375 17.1875 C-37.8575 17.1875 -12.7775 17.1875 13.0625 17.1875 C13.0625 14.5475 13.0625 11.9075 13.0625 9.1875 C10.4225 9.1875 7.7825 9.1875 5.0625 9.1875 C4.7325 10.5075 4.4025 11.8275 4.0625 13.1875 C1.7525 13.5175 -0.5575 13.8475 -2.9375 14.1875 C-3.5253125 12.9809375 -3.5253125 12.9809375 -4.125 11.75 C-5.70698191 8.95685262 -5.70698191 8.95685262 -8.625 8.375 C-9.388125 8.313125 -10.15125 8.25125 -10.9375 8.1875 C-11.5975 9.8375 -12.2575 11.4875 -12.9375 13.1875 C-13.9275 12.8575 -14.9175 12.5275 -15.9375 12.1875 C-14.9475 9.2175 -13.9575 6.2475 -12.9375 3.1875 C-10.2975 3.8475 -7.6575 4.5075 -4.9375 5.1875 C-4.6075 3.8675 -4.2775 2.5475 -3.9375 1.1875 C-2.9375 0.1875 -2.9375 0.1875 0 0 Z " fill="#6B806F" transform="translate(74.9375,31.8125)"/>
<path d="M0 0 C2.1994517 1.67304265 2.91259025 2.57023538 3.46875 5.3046875 C3.52423885 9.86864573 3.46680081 12.29979878 0.875 16.1875 C-2 18 -2 18 -5.125 18.0625 C-8.44475265 16.83563489 -9.20487186 15.98323318 -11 13 C-11.6546765 9.59568219 -11.59990211 6.41265067 -11 3 C-7.65272957 -1.2333126 -5.04643619 -1.64557702 0 0 Z " fill="#F5F8F5" transform="translate(246,64)"/>
<path d="M0 0 C6.93 0 13.86 0 21 0 C21 1.32 21 2.64 21 4 C18.36 4 15.72 4 13 4 C13 11.59 13 19.18 13 27 C11.35 27 9.7 27 8 27 C8 19.41 8 11.82 8 4 C5.36 4 2.72 4 0 4 C0 2.68 0 1.36 0 0 Z " fill="#3E5843" transform="translate(206,59)"/>
<path d="M0 0 C0.99 0 1.98 0 3 0 C3.49230769 6.4 3.49230769 6.4 1 9.4375 C0.01 10.2109375 0.01 10.2109375 -1 11 C-0.29423828 11.58201172 -0.29423828 11.58201172 0.42578125 12.17578125 C2.40992887 14.47502924 2.68533163 16.21311811 3.1875 19.1875 C3.34605469 20.08855469 3.50460937 20.98960938 3.66796875 21.91796875 C3.77753906 22.60503906 3.88710938 23.29210937 4 24 C2.35 24 0.7 24 -1 24 C-2.65 20.04 -4.3 16.08 -6 12 C-5.34 12 -4.68 12 -4 12 C-4 11.01 -4 10.02 -4 9 C-6.31 8.67 -8.62 8.34 -11 8 C-11 5.69 -11 3.38 -11 1 C-6.82532941 -0.65045116 -4.33629525 -1.17197169 0 0 Z " fill="#455F4A" transform="translate(277,62)"/>
<path d="M0 0 C1.32 0 2.64 0 4 0 C3.67 4.95 3.34 9.9 3 15 C5.97 15 8.94 15 12 15 C11.34 15.33 10.68 15.66 10 16 C10 16.66 10 17.32 10 18 C12.31 18 14.62 18 17 18 C17 18.33 17 18.66 17 19 C-3.46 19 -23.92 19 -45 19 C-45 18.67 -45 18.34 -45 18 C-31.14 18 -17.28 18 -3 18 C-2.34 13.05 -1.68 8.1 -1 3 C-0.67 2.01 -0.34 1.02 0 0 Z " fill="#E8F1EA" transform="translate(57,82)"/>
<path d="M0 0 C1.32 0 2.64 0 4 0 C4 8.91 4 17.82 4 27 C-1 27 -1 27 -2.58203125 25.5390625 C-2.98808594 24.90742187 -3.39414063 24.27578125 -3.8125 23.625 C-4.44091797 22.68527344 -4.44091797 22.68527344 -5.08203125 21.7265625 C-6 20 -6 20 -6 18 C-4.02 18 -2.04 18 0 18 C0 12.06 0 6.12 0 0 Z " fill="#3D5942" transform="translate(197,59)"/>
<path d="M0 0 C3.63 0 7.26 0 11 0 C11.09765625 7.71484375 11.09765625 7.71484375 11 10 C10 11 10 11 7.71484375 11.09765625 C5.14322917 11.06510417 2.57161458 11.03255208 0 11 C0 7.37 0 3.74 0 0 Z " fill="#47624B" transform="translate(16,57)"/>
<path d="M0 0 C7.71484375 -0.09765625 7.71484375 -0.09765625 10 0 C11 1 11 1 11.1328125 3.03125 C11.13023438 3.8459375 11.12765625 4.660625 11.125 5.5 C11.12757812 6.3146875 11.13015625 7.129375 11.1328125 7.96875 C11 10 11 10 10 11 C6.66381769 11.14257189 3.34024394 11.04228157 0 11 C0 7.37 0 3.74 0 0 Z " fill="#47614B" transform="translate(16,86)"/>
<path d="M0 0 C3.63 0 7.26 0 11 0 C11.09765625 7.71484375 11.09765625 7.71484375 11 10 C10 11 10 11 7.96875 11.1328125 C7.1540625 11.13023438 6.339375 11.12765625 5.5 11.125 C4.6853125 11.12757812 3.870625 11.13015625 3.03125 11.1328125 C1 11 1 11 0 10 C-0.14257189 6.66381769 -0.04228157 3.34024394 0 0 Z " fill="#46604B" transform="translate(45,72)"/>
<path d="M0 0 C1.37478516 0.01740234 1.37478516 0.01740234 2.77734375 0.03515625 C3.69644531 0.04417969 4.61554688 0.05320312 5.5625 0.0625 C6.27277344 0.07410156 6.98304687 0.08570312 7.71484375 0.09765625 C7.74172526 1.74340191 7.76118498 3.38927038 7.77734375 5.03515625 C7.78894531 5.95167969 7.80054687 6.86820312 7.8125 7.8125 C7.71484375 10.09765625 7.71484375 10.09765625 6.71484375 11.09765625 C5.02875409 11.16971136 3.33983716 11.18151693 1.65234375 11.16015625 C0.73324219 11.15113281 -0.18585938 11.14210938 -1.1328125 11.1328125 C-1.84308594 11.12121094 -2.55335937 11.10960938 -3.28515625 11.09765625 C-3.31203776 9.45191059 -3.33149748 7.80604212 -3.34765625 6.16015625 C-3.35925781 5.24363281 -3.37085937 4.32710938 -3.3828125 3.3828125 C-3.25079574 0.2936203 -3.0891922 0.13201676 0 0 Z " fill="#46614B" transform="translate(77.28515625,71.90234375)"/>
<path d="M0 0 C0.8146875 0.00257812 1.629375 0.00515625 2.46875 0.0078125 C3.2834375 0.00523438 4.098125 0.00265625 4.9375 0 C6.96875 0.1328125 6.96875 0.1328125 7.96875 1.1328125 C8.0666557 2.63019374 8.09849864 4.13224142 8.09375 5.6328125 C8.09632812 6.4475 8.09890625 7.2621875 8.1015625 8.1015625 C7.96875 10.1328125 7.96875 10.1328125 6.96875 11.1328125 C5.28266034 11.20486761 3.59374341 11.21667318 1.90625 11.1953125 C0.98714844 11.18628906 0.06804688 11.17726563 -0.87890625 11.16796875 C-1.58917969 11.15636719 -2.29945312 11.14476563 -3.03125 11.1328125 C-3.05813151 9.48706684 -3.07759123 7.84119837 -3.09375 6.1953125 C-3.10535156 5.27878906 -3.11695313 4.36226563 -3.12890625 3.41796875 C-3.00402422 0.49572926 -2.91184986 0.19039018 0 0 Z " fill="#45604B" transform="translate(48.03125,85.8671875)"/>
<path d="M0 0 C0.8146875 0.00257812 1.629375 0.00515625 2.46875 0.0078125 C3.2834375 0.00523438 4.098125 0.00265625 4.9375 0 C6.96875 0.1328125 6.96875 0.1328125 7.96875 1.1328125 C8.04080511 2.81890216 8.05261068 4.50781909 8.03125 6.1953125 C8.02222656 7.11441406 8.01320313 8.03351563 8.00390625 8.98046875 C7.99230469 9.69074219 7.98070312 10.40101562 7.96875 11.1328125 C6.32300434 11.15969401 4.67713587 11.17915373 3.03125 11.1953125 C2.11472656 11.20691406 1.19820312 11.21851562 0.25390625 11.23046875 C-2.03125 11.1328125 -2.03125 11.1328125 -3.03125 10.1328125 C-3.1291557 8.63543126 -3.16099864 7.13338358 -3.15625 5.6328125 C-3.15882812 4.818125 -3.16140625 4.0034375 -3.1640625 3.1640625 C-2.98414019 0.4123095 -2.751753 0.17992231 0 0 Z " fill="#455F49" transform="translate(33.03125,85.8671875)"/>
<path d="M0 0 C1.37478516 0.01740234 1.37478516 0.01740234 2.77734375 0.03515625 C3.69644531 0.04417969 4.61554688 0.05320313 5.5625 0.0625 C6.27277344 0.07410156 6.98304687 0.08570313 7.71484375 0.09765625 C7.74172526 1.74340191 7.76118498 3.38927038 7.77734375 5.03515625 C7.78894531 5.95167969 7.80054687 6.86820313 7.8125 7.8125 C7.71484375 10.09765625 7.71484375 10.09765625 6.71484375 11.09765625 C5.21746251 11.19556195 3.71541483 11.22740489 2.21484375 11.22265625 C1.40015625 11.22523437 0.58546875 11.2278125 -0.25390625 11.23046875 C-2.28515625 11.09765625 -2.28515625 11.09765625 -3.28515625 10.09765625 C-3.38306195 8.60027501 -3.41490489 7.09822733 -3.41015625 5.59765625 C-3.41273437 4.78296875 -3.4153125 3.96828125 -3.41796875 3.12890625 C-3.22757857 0.21705639 -2.92223949 0.12488203 0 0 Z " fill="#39583F" transform="translate(77.28515625,56.90234375)"/>
<path d="M0 0 C3.63 0 7.26 0 11 0 C11.1953125 6.8359375 11.1953125 6.8359375 11 9 C9 11 9 11 7.08984375 11.23046875 C1.11111111 11.11111111 1.11111111 11.11111111 0 10 C-0.14257189 6.66381769 -0.04228157 3.34024394 0 0 Z " fill="#3A5841" transform="translate(60,72)"/>
<path d="M0 0 C3.63 0 7.26 0 11 0 C11.09765625 7.71484375 11.09765625 7.71484375 11 10 C9.10511048 11.89488952 6.42860854 11.18019112 3.91015625 11.23046875 C2 11 2 11 0 9 C-0.27240673 5.98173347 -0.08675125 3.03629378 0 0 Z " fill="#45604B" transform="translate(30,72)"/>
<path d="M0 0 C1.64574566 -0.02688151 3.29161413 -0.04634123 4.9375 -0.0625 C5.85402344 -0.07410156 6.77054688 -0.08570312 7.71484375 -0.09765625 C10 0 10 0 11 1 C11.23880597 8.52238806 11.23880597 8.52238806 10 11 C8.52093108 11.02689216 7.04172517 11.04634621 5.5625 11.0625 C4.32693359 11.07990234 4.32693359 11.07990234 3.06640625 11.09765625 C1 11 1 11 0 10 C-0.07205511 8.31391034 -0.08386068 6.62499341 -0.0625 4.9375 C-0.05347656 4.01839844 -0.04445313 3.09929687 -0.03515625 2.15234375 C-0.02355469 1.44207031 -0.01195312 0.73179688 0 0 Z " fill="#47614B" transform="translate(16,72)"/>
<path d="M0 0 C0.8146875 0.00257812 1.629375 0.00515625 2.46875 0.0078125 C3.2834375 0.00523438 4.098125 0.00265625 4.9375 0 C6.96875 0.1328125 6.96875 0.1328125 7.96875 1.1328125 C8.0666557 2.63019374 8.09849864 4.13224142 8.09375 5.6328125 C8.09632812 6.4475 8.09890625 7.2621875 8.1015625 8.1015625 C7.96875 10.1328125 7.96875 10.1328125 6.96875 11.1328125 C5.47136876 11.2307182 3.96932108 11.26256114 2.46875 11.2578125 C1.6540625 11.26039062 0.839375 11.26296875 0 11.265625 C-2.03125 11.1328125 -2.03125 11.1328125 -3.03125 10.1328125 C-3.1291557 8.63543126 -3.16099864 7.13338358 -3.15625 5.6328125 C-3.15882812 4.818125 -3.16140625 4.0034375 -3.1640625 3.1640625 C-2.98414019 0.4123095 -2.751753 0.17992231 0 0 Z " fill="#415C45" transform="translate(48.03125,56.8671875)"/>
<path d="M0 0 C0.8146875 0.00257812 1.629375 0.00515625 2.46875 0.0078125 C3.2834375 0.00523438 4.098125 0.00265625 4.9375 0 C6.96875 0.1328125 6.96875 0.1328125 7.96875 1.1328125 C8.0666557 2.63019374 8.09849864 4.13224142 8.09375 5.6328125 C8.09632812 6.4475 8.09890625 7.2621875 8.1015625 8.1015625 C7.96875 10.1328125 7.96875 10.1328125 6.96875 11.1328125 C5.47136876 11.2307182 3.96932108 11.26256114 2.46875 11.2578125 C1.6540625 11.26039062 0.839375 11.26296875 0 11.265625 C-2.03125 11.1328125 -2.03125 11.1328125 -3.03125 10.1328125 C-3.1291557 8.63543126 -3.16099864 7.13338358 -3.15625 5.6328125 C-3.15882812 4.818125 -3.16140625 4.0034375 -3.1640625 3.1640625 C-2.98414019 0.4123095 -2.751753 0.17992231 0 0 Z " fill="#435E47" transform="translate(33.03125,56.8671875)"/>
<path d="M0 0 C0.66 0.33 1.32 0.66 2 1 C2.144375 1.66 2.28875 2.32 2.4375 3 C2.623125 3.66 2.80875 4.32 3 5 C3.99 5.33 4.98 5.66 6 6 C6.66 9.3 7.32 12.6 8 16 C-1.625 17.125 -1.625 17.125 -5 16 C-3.41078475 10.63904723 -1.81027062 5.29156027 0 0 Z " fill="#4D6651" transform="translate(292,59)"/>
<path d="M0 0 C3.3 0 6.6 0 10 0 C10 3.63 10 7.26 10 11 C6.7 11 3.4 11 0 11 C0 7.37 0 3.74 0 0 Z " fill="#415D47" transform="translate(60,86)"/>
<path d="M0 0 C3.3 0 6.6 0 10 0 C10 3.63 10 7.26 10 11 C3.06640625 11.09765625 3.06640625 11.09765625 1 11 C0 10 0 10 -0.09765625 7.71484375 C-0.06510417 5.14322917 -0.03255208 2.57161458 0 0 Z " fill="#445D48" transform="translate(60,57)"/>
<path d="M0 0 C0.33 0 0.66 0 1 0 C1 5.94 1 11.88 1 18 C-1.31 18.33 -3.62 18.66 -6 19 C-8.475 15.04 -8.475 15.04 -11 11 C-11.33 16.28 -11.66 21.56 -12 27 C-12.33 27 -12.66 27 -13 27 C-13 20.73 -13 14.46 -13 8 C-12.01 7.67 -11.02 7.34 -10 7 C-9.34 6.01 -8.68 5.02 -8 4 C-5.69 7.96 -3.38 11.92 -1 16 C-0.67 10.72 -0.34 5.44 0 0 Z " fill="#526855" transform="translate(196,59)"/>
<path d="M0 0 C5.94 0 11.88 0 18 0 C18 1.32 18 2.64 18 4 C16.92878906 3.98839844 15.85757813 3.97679687 14.75390625 3.96484375 C13.35677257 3.95546701 11.95963701 3.94636669 10.5625 3.9375 C9.85544922 3.92912109 9.14839844 3.92074219 8.41992188 3.91210938 C6.61306441 3.90346412 4.80612397 3.94779989 3 4 C1.34920558 5.65079442 1.77450553 7.63736179 1.68359375 9.91015625 C1.64169922 10.89951172 1.59980469 11.88886719 1.55664062 12.90820312 C1.51732422 13.94912109 1.47800781 14.99003906 1.4375 16.0625 C1.39431641 17.10728516 1.35113281 18.15207031 1.30664062 19.22851562 C1.20018775 21.81886884 1.0981724 24.40932186 1 27 C0.67 27 0.34 27 0 27 C0 18.09 0 9.18 0 0 Z " fill="#455C4A" transform="translate(105,59)"/>
<path d="M0 0 C0.66 0.33 1.32 0.66 2 1 C2.91062395 9.38111298 2.91062395 9.38111298 0.76953125 13.1875 C-1.7181368 16.13584732 -3.28554421 17.76184807 -7 19 C-9.33299825 19.03954234 -11.66708189 19.04401732 -14 19 C-14.33 18.01 -14.66 17.02 -15 16 C-14.31292969 15.82984375 -13.62585938 15.6596875 -12.91796875 15.484375 C-11.56638672 15.12085937 -11.56638672 15.12085937 -10.1875 14.75 C-9.29417969 14.51796875 -8.40085937 14.2859375 -7.48046875 14.046875 C-4.54645021 12.80858056 -3.52747535 11.77357366 -2 9 C-1.64131841 6.87027179 -1.64131841 6.87027179 -1.8125 4.75 C-1.874375 3.5125 -1.93625 2.275 -2 1 C-1.34 0.67 -0.68 0.34 0 0 Z " fill="#455C4A" transform="translate(99,93)"/>
<path d="M0 0 C2.9375 0.9375 2.9375 0.9375 4.3125 3 C4.51875 3.639375 4.725 4.27875 4.9375 4.9375 C4.2775 4.9375 3.6175 4.9375 2.9375 4.9375 C2.2775 6.9175 1.6175 8.8975 0.9375 10.9375 C-0.9375 10.625 -0.9375 10.625 -3.0625 9.9375 C-5.78977273 5.84659091 -5.78977273 5.84659091 -6.0625 2.9375 C-4.34567881 0.00880503 -3.40455389 -0.06948069 0 0 Z " fill="#586E5B" transform="translate(59.0625,31.0625)"/>
<path d="M0 0 C0.99 0.33 1.98 0.66 3 1 C3.73046875 3.06640625 3.73046875 3.06640625 4.1875 5.5625 C4.34605469 6.38878906 4.50460938 7.21507812 4.66796875 8.06640625 C4.77753906 8.70449219 4.88710937 9.34257813 5 10 C2.69 10.33 0.38 10.66 -2 11 C-2.99 9.35 -3.98 7.7 -5 6 C-4.34 5.67 -3.68 5.34 -3 5 C-2.34 5.33 -1.68 5.66 -1 6 C-1.020625 5.195625 -1.04125 4.39125 -1.0625 3.5625 C-1 1 -1 1 0 0 Z " fill="#48624F" transform="translate(74,35)"/>
<path d="M0 0 C0.33 0 0.66 0 1 0 C1 5.94 1 11.88 1 18 C-0.32 18 -1.64 18 -3 18 C-3 13.38 -3 8.76 -3 4 C-2.01 3.67 -1.02 3.34 0 3 C0 2.01 0 1.02 0 0 Z " fill="#3D573F" transform="translate(182,68)"/>
<path d="M0 0 C0.99 0.33 1.98 0.66 3 1 C3.34718988 4.73229119 3.23503152 6.59957594 1.3125 9.875 C-1 12 -1 12 -3.75 12.3125 C-4.86375 12.1578125 -4.86375 12.1578125 -6 12 C-4.43358249 7.69235185 -2.31663844 3.93828536 0 0 Z " fill="#46604A" transform="translate(251,72)"/>
<path d="M0 0 C2.31 0 4.62 0 7 0 C9.32590854 3.63423209 9.16265833 6.77088331 9 11 C8.01 11.495 8.01 11.495 7 12 C7 11.34 7 10.68 7 10 C6.34 10 5.68 10 5 10 C5 8.68 5 7.36 5 6 C3.68 5.67 2.36 5.34 1 5 C0.67 3.35 0.34 1.7 0 0 Z " fill="#47604B" transform="translate(293,59)"/>
<path d="M0 0 C3.375 -0.125 3.375 -0.125 7 0 C9 2 9 2 9 6 C6.04335481 7.4783226 3.25770263 7.06032783 0 7 C0 4.69 0 2.38 0 0 Z " fill="#EAF2EA" transform="translate(266,63)"/>
<path d="M0 0 C0.99 0 1.98 0 3 0 C3.02688151 1.64574566 3.04634123 3.29161413 3.0625 4.9375 C3.07410156 5.85402344 3.08570312 6.77054688 3.09765625 7.71484375 C3 10 3 10 2 11 C0.50261876 11.0979057 -0.99942892 11.12974864 -2.5 11.125 C-3.3146875 11.12757812 -4.129375 11.13015625 -4.96875 11.1328125 C-7 11 -7 11 -8 10 C-8.07179964 8.48071962 -8.08392007 6.95832518 -8.0625 5.4375 C-8.05347656 4.61121094 -8.04445313 3.78492188 -8.03515625 2.93359375 C-8.02355469 2.29550781 -8.01195313 1.65742187 -8 1 C-7.67 1 -7.34 1 -7 1 C-6.67 3.31 -6.34 5.62 -6 8 C-3.54775306 7.89386164 -3.54775306 7.89386164 -1 7 C0.48046297 4.63276087 0.48046297 4.63276087 1 2 C0.67 1.34 0.34 0.68 0 0 Z " fill="#4A624E" transform="translate(82,57)"/>
<path d="M0 0 C3.42054006 1.14018002 4.2426201 1.92458518 6 5 C5.73495121 8.00388632 5.16695725 8.83304275 3 11 C1.68 11 0.36 11 -1 11 C-1.02688151 9.35425434 -1.04634123 7.70838587 -1.0625 6.0625 C-1.07410156 5.14597656 -1.08570312 4.22945312 -1.09765625 3.28515625 C-1 1 -1 1 0 0 Z " fill="#556A58" transform="translate(25,35)"/>
<path d="M0 0 C2.97 0 5.94 0 9 0 C9 2.97 9 5.94 9 9 C7.68 8.34 6.36 7.68 5 7 C3.9171875 6.5978125 3.9171875 6.5978125 2.8125 6.1875 C1 5 1 5 0.25 2.375 C0.1675 1.59125 0.085 0.8075 0 0 Z " fill="#39583F" transform="translate(61,58)"/>
<path d="M0 0 C1.0828125 1.11375 1.0828125 1.11375 2.1875 2.25 C4.68592573 4.69290515 7.23643202 6.8681047 10 9 C9.34 9 8.68 9 8 9 C8.33 9.99 8.66 10.98 9 12 C3.5 10.53333333 3.5 10.53333333 1.125 8 C0 6 0 6 0 4 C-0.99 4 -1.98 4 -3 4 C-3 3.34 -3 2.68 -3 2 C-2.01 1.34 -1.02 0.68 0 0 Z " fill="#435D49" transform="translate(76,100)"/>
<path d="M0 0 C0.99 0 1.98 0 3 0 C3 1.98 3 3.96 3 6 C3.66 6 4.32 6 5 6 C5 7.32 5 8.64 5 10 C2.1875 10.6875 2.1875 10.6875 -1 11 C-2.875 9.5625 -2.875 9.5625 -4 8 C-2.68 8.33 -1.36 8.66 0 9 C-0.185625 7.700625 -0.37125 6.40125 -0.5625 5.0625 C-0.87890625 2.84765625 -0.87890625 2.84765625 -1 1 C-0.67 0.67 -0.34 0.34 0 0 Z " fill="#586B5A" transform="translate(41,35)"/>
<path d="M0 0 C0.66 0 1.32 0 2 0 C2.99 3.63 3.98 7.26 5 11 C3.02 11 1.04 11 -1 11 C-1.66 8.69 -2.32 6.38 -3 4 C-2.01 4 -1.02 4 0 4 C0 2.68 0 1.36 0 0 Z " fill="#556E5B" transform="translate(304,75)"/>
<path d="M0 0 C0.66 0.33 1.32 0.66 2 1 C3.28317892 4.84953676 3.06643637 7.94738135 3 12 C2.67 11.01 2.34 10.02 2 9 C1.01 9 0.02 9 -1 9 C-1.66 9.66 -2.32 10.32 -3 11 C-3.125 4.25 -3.125 4.25 -2 2 C-1.34 2 -0.68 2 0 2 C0 1.34 0 0.68 0 0 Z " fill="#536C57" transform="translate(252,64)"/>
<path d="M0 0 C1.65 0.33 3.3 0.66 5 1 C5.33 2.32 5.66 3.64 6 5 C7.65 5 9.3 5 11 5 C10.38125 5.433125 9.7625 5.86625 9.125 6.3125 C6.7802755 7.99740483 6.7802755 7.99740483 5 11 C5 10.34 5 9.68 5 9 C4.34 9 3.68 9 3 9 C3 7.02 3 5.04 3 3 C1.68 2.67 0.36 2.34 -1 2 C-0.67 1.34 -0.34 0.68 0 0 Z " fill="#3C5840" transform="translate(41,32)"/>
<path d="M0 0 C0.66 0 1.32 0 2 0 C2.99 2.97 3.98 5.94 5 9 C2.69 9 0.38 9 -2 9 C-1.125 2.25 -1.125 2.25 0 0 Z " fill="#E1ECE5" transform="translate(295,66)"/>
<path d="M0 0 C1.32 0 2.64 0 4 0 C4 1.65 4 3.3 4 5 C4.66 5 5.32 5 6 5 C5.67 6.32 5.34 7.64 5 9 C3.35 8.67 1.7 8.34 0 8 C0 5.36 0 2.72 0 0 Z " fill="#536958" transform="translate(86,94)"/>
<path d="M0 0 C4 4.875 4 4.875 4 6 C2.02 6.33 0.04 6.66 -2 7 C-2.33 12.28 -2.66 17.56 -3 23 C-3.33 23 -3.66 23 -4 23 C-4 16.73 -4 10.46 -4 4 C-3.01 3.67 -2.02 3.34 -1 3 C-0.67 2.01 -0.34 1.02 0 0 Z " fill="#677C6B" transform="translate(187,63)"/>
<path d="M0 0 C1.32 0.33 2.64 0.66 4 1 C4 2.32 4 3.64 4 5 C4.66 5.66 5.32 6.32 6 7 C6 7.99 6 8.98 6 10 C5.38125 9.814375 4.7625 9.62875 4.125 9.4375 C1.95839822 8.76313824 1.95839822 8.76313824 0 10 C-0.66 8.35 -1.32 6.7 -2 5 C-1.34 5 -0.68 5 0 5 C0 3.35 0 1.7 0 0 Z " fill="#4D6651" transform="translate(273,69)"/>
<path d="M0 0 C1.98 1.65 3.96 3.3 6 5 C5.01 5.99 4.02 6.98 3 8 C2.319375 7.360625 1.63875 6.72125 0.9375 6.0625 C-2.46408839 3.6741507 -4.90433701 3.32122847 -9 3 C-9 2.67 -9 2.34 -9 2 C-6.03 2 -3.06 2 0 2 C0 1.34 0 0.68 0 0 Z " fill="#5B725F" transform="translate(94,87)"/>
<path d="M0 0 C-0.33 1.65 -0.66 3.3 -1 5 C-4.3 4.67 -7.6 4.34 -11 4 C-11 3.01 -11 2.02 -11 1 C-9.54182203 0.83197949 -8.0834516 0.66562857 -6.625 0.5 C-5.81289063 0.4071875 -5.00078125 0.314375 -4.1640625 0.21875 C-2 0 -2 0 0 0 Z " fill="#F7FEFB" transform="translate(57,82)"/>
<path d="M0 0 C0.66 0 1.32 0 2 0 C3.21994269 3.65982807 2.49026663 4.58115302 1 8 C1 8.66 1 9.32 1 10 C-0.32 10 -1.64 10 -3 10 C-4.125 6.25 -4.125 6.25 -3 4 C-2.01 4 -1.02 4 0 4 C0 2.68 0 1.36 0 0 Z " fill="#385840" transform="translate(140,76)"/>
<path d="M0 0 C0.66 1.32 1.32 2.64 2 4 C-1.3 3.67 -4.6 3.34 -8 3 C-7.67 2.01 -7.34 1.02 -7 0 C-4.25509788 -1.37245106 -2.87939419 -0.93580311 0 0 Z " fill="#536A56" transform="translate(29,32)"/>
<path d="M0 0 C0.33 0 0.66 0 1 0 C1.05399736 1.45792884 1.09279177 2.91642712 1.125 4.375 C1.14820312 5.18710938 1.17140625 5.99921875 1.1953125 6.8359375 C1 9 1 9 -1 11 C-3.68839385 11.26991906 -6.29141936 11.08737357 -9 11 C-9 10.67 -9 10.34 -9 10 C-7.02 9.67 -5.04 9.34 -3 9 C-2.01 6.03 -1.02 3.06 0 0 Z " fill="#78897B" transform="translate(70,72)"/>
<path d="M0 0 C-0.875 4.875 -0.875 4.875 -2 6 C-3.66617115 6.04063832 -5.33388095 6.042721 -7 6 C-5.81636731 2.44910192 -3.99368042 0 0 0 Z " fill="#3D5942" transform="translate(252,78)"/>
<path d="M0 0 C1.32 0.33 2.64 0.66 4 1 C4 3.31 4 5.62 4 8 C3.67 7.34 3.34 6.68 3 6 C2.34 6 1.68 6 1 6 C0.67 6.66 0.34 7.32 0 8 C0 5.36 0 2.72 0 0 Z " fill="#E2EFE3" transform="translate(41,73)"/>
<path d="M0 0 C2.97 0.99 5.94 1.98 9 3 C8.67 3.66 8.34 4.32 8 5 C2.25 5.125 2.25 5.125 0 4 C0 2.68 0 1.36 0 0 Z " fill="#3C573F" transform="translate(28,35)"/>
<path d="M0 0 C0.99 0.33 1.98 0.66 3 1 C3 2.98 3 4.96 3 7 C1.68 7 0.36 7 -1 7 C-1.04254356 5.00045254 -1.04080783 2.99958364 -1 1 C-0.67 0.67 -0.34 0.34 0 0 Z " fill="#DBE7D7" transform="translate(74,35)"/>
<path d="M0 0 C0.99 0 1.98 0 3 0 C3 1.98 3 3.96 3 6 C1.68 6 0.36 6 -1 6 C-1.042721 4.33388095 -1.04063832 2.66617115 -1 1 C-0.67 0.67 -0.34 0.34 0 0 Z " fill="#E2ECE3" transform="translate(41,35)"/>
<path d="M0 0 C1 4 1 4 0 7 C0.99 7.33 1.98 7.66 3 8 C3 8.66 3 9.32 3 10 C1.02 10 -0.96 10 -3 10 C-2.01 6.7 -1.02 3.4 0 0 Z " fill="#566C5B" transform="translate(286,76)"/>
<path d="M0 0 C0.66 0 1.32 0 2 0 C2 0.66 2 1.32 2 2 C2.66 2 3.32 2 4 2 C4 3.65 4 5.3 4 7 C3.01 7.495 3.01 7.495 2 8 C2 7.34 2 6.68 2 6 C1.34 6 0.68 6 0 6 C-0.38218767 4.34385343 -0.71395102 2.67542976 -1 1 C-0.67 0.67 -0.34 0.34 0 0 Z " fill="#3B593F" transform="translate(298,63)"/>
<path d="M0 0 C1.65 0.33 3.3 0.66 5 1 C5 2.32 5 3.64 5 5 C2 6 2 6 -1 5 C-0.67 3.35 -0.34 1.7 0 0 Z " fill="#536E59" transform="translate(288,70)"/>
<path d="M0 0 C0.99 0 1.98 0 3 0 C3 2.31 3 4.62 3 7 C2.01 7 1.02 7 0 7 C0 4.69 0 2.38 0 0 Z " fill="#ECF7EE" transform="translate(57,35)"/>
<path d="M0 0 C2.125 0.375 2.125 0.375 4 1 C3.01 1.66 2.02 2.32 1 3 C-0.19232613 5.05003955 -0.19232613 5.05003955 -1 7 C-1.66 6.67 -2.32 6.34 -3 6 C-2.42655063 3.13275314 -2.1385485 2.1385485 0 0 Z " fill="#526757" transform="translate(40,31)"/>
<path d="M0 0 C0.99 0.66 1.98 1.32 3 2 C3 2.99 3 3.98 3 5 C1.02 5 -0.96 5 -3 5 C-2.01 3.35 -1.02 1.7 0 0 Z " fill="#3C5640" transform="translate(52,92)"/>
<path d="M0 0 C1.2065625 0.0309375 1.2065625 0.0309375 2.4375 0.0625 C2.7675 1.3825 3.0975 2.7025 3.4375 4.0625 C1.0625 4.25 1.0625 4.25 -1.5625 4.0625 C-2.2225 3.0725 -2.8825 2.0825 -3.5625 1.0625 C-2.5625 0.0625 -2.5625 0.0625 0 0 Z " fill="#566A5B" transform="translate(57.5625,41.9375)"/>
<path d="M0 0 C0.66 0 1.32 0 2 0 C2 2.31 2 4.62 2 7 C1.01 7 0.02 7 -1 7 C-1.04254356 5.00045254 -1.04080783 2.99958364 -1 1 C-0.67 0.67 -0.34 0.34 0 0 Z " fill="#EBF7EE" transform="translate(25,35)"/>
<path d="M0 0 C2.475 0.99 2.475 0.99 5 2 C4.01 2.495 4.01 2.495 3 3 C3.33 3.99 3.66 4.98 4 6 C1.97954558 5.39816251 -0.02111039 4.72693904 -2 4 C-2.33 3.34 -2.66 2.68 -3 2 C-2.01 2 -1.02 2 0 2 C0 1.34 0 0.68 0 0 Z " fill="#586E5D" transform="translate(81,106)"/>
<path d="M0 0 C0.33 0.66 0.66 1.32 1 2 C1.99 2.33 2.98 2.66 4 3 C4 3.66 4 4.32 4 5 C2.35 5 0.7 5 -1 5 C-1.33 3.68 -1.66 2.36 -2 1 C-1.34 0.67 -0.68 0.34 0 0 Z " fill="#445949" transform="translate(305,81)"/>
<path d="M0 0 C0.66 0.33 1.32 0.66 2 1 C2 1.99 2 2.98 2 4 C-0.31 4.33 -2.62 4.66 -5 5 C-3.35 3.35 -1.7 1.7 0 0 Z " fill="#5B705F" transform="translate(77,41)"/>
<path d="M0 0 C1.98 0 3.96 0 6 0 C6 0.99 6 1.98 6 3 C4.35 3 2.7 3 1 3 C0.67 2.01 0.34 1.02 0 0 Z " fill="#3E573D" transform="translate(84,109)"/>
<path d="M0 0 C0.99 0.33 1.98 0.66 3 1 C1.25 4.875 1.25 4.875 -1 6 C-1.625 4.125 -1.625 4.125 -2 2 C-1.34 1.34 -0.68 0.68 0 0 Z " fill="#455D4A" transform="translate(77,91)"/>
<path d="M0 0 C1.32 1.32 2.64 2.64 4 4 C3.34 5.98 2.68 7.96 2 10 C1.67 10 1.34 10 1 10 C1 8.02 1 6.04 1 4 C0.34 3.67 -0.32 3.34 -1 3 C-0.67 2.01 -0.34 1.02 0 0 Z " fill="#46614B" transform="translate(288,74)"/>
</svg>
