<?xml version="1.0" encoding="UTF-8"?>
<svg version="1.1" xmlns="http://www.w3.org/2000/svg" width="321" height="319">
<path d="M0 0 C105.93 0 211.86 0 321 0 C321 105.27 321 210.54 321 319 C215.07 319 109.14 319 0 319 C0 213.73 0 108.46 0 0 Z " fill="#F2F2F2" transform="translate(0,0)"/>
<path d="M0 0 C105.93 0 211.86 0 321 0 C321 105.27 321 210.54 321 319 C215.07 319 109.14 319 0 319 C0 213.73 0 108.46 0 0 Z M19 16 C19 110.71 19 205.42 19 303 C114.04 303 209.08 303 307 303 C307 208.29 307 113.58 307 16 C211.96 16 116.92 16 19 16 Z " fill="#8C8C8C" transform="translate(0,0)"/>
<path d="M0 0 C17.16 0 34.32 0 52 0 C52 5.94 52 11.88 52 18 C40.45 18 28.9 18 17 18 C17 27.24 17 36.48 17 46 C27.56 46 38.12 46 49 46 C49 51.61 49 57.22 49 63 C38.44 63 27.88 63 17 63 C17 73.56 17 84.12 17 95 C28.55 95 40.1 95 52 95 C52 100.61 52 106.22 52 112 C34.84 112 17.68 112 0 112 C0 75.04 0 38.08 0 0 Z " fill="#8B8B8C" transform="translate(136,111)"/>
<path d="M0 0 C0.99 0 1.98 0 3 0 C3 105.27 3 210.54 3 319 C2.01 319 1.02 319 0 319 C0 213.73 0 108.46 0 0 Z " fill="#F3F3F3" transform="translate(0,0)"/>
<path d="M0 0 C5.94 0 11.88 0 18 0 C18 6.93 18 13.86 18 21 C7.44 21 -3.12 21 -14 21 C-14 28.59 -14 36.18 -14 44 C-19.94 44 -25.88 44 -32 44 C-32 35.09 -32 26.18 -32 17 C-21.44 17 -10.88 17 0 17 C0 11.39 0 5.78 0 0 Z " fill="#C7CDD8" transform="translate(187,159)"/>
<path d="M0 0 C0.66 0.66 1.32 1.32 2 2 C2.33 1.67 2.66 1.34 3 1 C5.86469325 0.92669669 8.69893674 0.90782169 11.5625 0.9375 C15.7390625 0.9684375 15.7390625 0.9684375 20 1 C20 7.93 20 14.86 20 22 C8.45 22 -3.1 22 -15 22 C-15 28.93 -15 35.86 -15 43 C-20.94 43 -26.88 43 -33 43 C-33 35.08 -33 27.16 -33 19 C-21.45 19 -9.9 19 2 19 C2 18.34 2 17.68 2 17 C1.34 17 0.68 17 0 17 C0 11.39 0 5.78 0 0 Z " fill="#C7CDD7" transform="translate(188,112)"/>
<path d="M0 0 C0.66 0.66 1.32 1.32 2 2 C2.66 1.34 3.32 0.68 4 0 C6.76523903 0.01753851 9.37982995 0.13843141 12.125 0.375 C14.72375 0.58125 17.3225 0.7875 20 1 C20 7.93 20 14.86 20 22 C1.52 22 -16.96 22 -36 22 C-36 21.01 -36 20.02 -36 19 C-23.79 18.67 -11.58 18.34 1 18 C0.67 17.67 0.34 17.34 0 17 C-0.07325168 14.13732433 -0.09238205 11.299281 -0.0625 8.4375 C-0.05798828 7.63119141 -0.05347656 6.82488281 -0.04882812 5.99414062 C-0.03700518 3.99606244 -0.01906914 1.99802217 0 0 Z " fill="#C7CCD6" transform="translate(188,206)"/>
<path d="M0 0 C12.21 0 24.42 0 37 0 C37 0.66 37 1.32 37 2 C25.45 2 13.9 2 2 2 C1.67 10.25 1.34 18.5 1 27 C11.23 27 21.46 27 32 27 C32 27.33 32 27.66 32 28 C21.44 28 10.88 28 0 28 C0 18.76 0 9.52 0 0 Z " fill="#DEE1E6" transform="translate(153,129)"/>
</svg>
